<?xml version="1.0" encoding="UTF-8"?>
<svg id="Layer_1" xmlns="http://www.w3.org/2000/svg" viewBox="0 0 468.73 468.73">
  <defs>
    <style>
      .cls-1 {
        fill-rule: evenodd;
      }
    </style>
  </defs>
  <path class="cls-1" d="M234.36,0l87.22,87.22c-15.61,0-27.6,2.27-40.31,12.22l-46.91-46.91-47,47c-12.61-9.61-25.09-12.32-40.21-12.32L234.36,0h0ZM381.51,147.15l87.22,87.22-87.22,87.22c0-15.14-2.67-27.6-12.31-40.23l46.99-46.99-46.91-46.91c9.96-12.71,12.22-24.7,12.22-40.31h0ZM321.58,381.51l-87.22,87.22-87.22-87.22c15.14,0,27.59-2.67,40.23-12.31l46.99,46.99,47-46.99c12.63,9.63,25.09,12.31,40.23,12.31h0ZM87.22,321.58L0,234.36l87.22-87.22c0,15.14,2.67,27.59,12.31,40.23l-46.99,46.99,46.99,46.99c-9.64,12.63-12.31,25.09-12.31,40.23Z"/>
  <path class="cls-1" d="M240.03,174.25v-29.17l.02-.54c1.22-42.1,34.51-75.89,76.95-75.89h83.09v83.09c0,42.44-33.8,75.73-75.89,76.95h-.54s-29.17.01-29.17.01v11.33h28.63c42.44,0,75.74,33.8,76.95,75.9l.02.53v83.63h-83.63s-.54-.02-.54-.02c-42.1-1.22-75.89-34.51-75.89-76.95v-28.64h-11.33v28.64c0,42.44-33.79,75.74-75.89,76.95h-.54s-83.63.02-83.63.02v-83.63l.02-.54c1.22-42.1,34.51-75.89,76.95-75.89h28.63v-11.33h-28.63c-42.44,0-75.73-33.8-76.95-75.89l-.02-.54v-83.63h83.63s.53.02.53.02c42.1,1.22,75.89,34.51,75.89,76.95v28.64h11.33ZM211.39,211.39v45.94h45.94v-45.94h-45.94ZM191.55,323.11v-37.93l-42.21,42.21-8.01-8.01,42.21-42.21h-37.93c-22.26,0-39.18,17.7-39.82,39.82v45.94h45.94c22.12-.64,39.82-17.57,39.82-39.82h0ZM323.11,277.18h-37.93l42.21,42.2-8.01,8.01-42.2-42.21v37.93c0,22.26,17.7,39.18,39.82,39.82h45.94v-45.94c-.64-22.12-17.57-39.82-39.82-39.82h0ZM145.61,191.55h37.93l-42.21-42.21,8.01-8.01,42.21,42.21v-37.93c0-22.26-17.7-39.18-39.82-39.82h-45.94v45.94c.64,22.12,17.57,39.82,39.82,39.82h0ZM362.94,151.73v-45.94h-45.94c-22.25,0-39.18,17.7-39.82,39.82v37.93l42.2-42.21,8.01,8.01-42.21,42.2h37.93c22.12-.64,39.82-17.57,39.82-39.82Z"/>
</svg>